<svg width="219" height="219" viewBox="0 0 219 219" fill="none" xmlns="http://www.w3.org/2000/svg">
<circle cx="109.132" cy="109.131" r="109.132" transform="rotate(90 109.132 109.131)" fill="url(#paint0_linear_1_1406)"/>
<path fill-rule="evenodd" clip-rule="evenodd" d="M87.4235 107.066C87.4235 119.814 77.0895 130.148 64.3418 130.148C51.5941 130.148 41.2601 119.814 41.2601 107.066C41.2601 94.3187 51.5941 83.9847 64.3418 83.9847C77.0895 83.9847 87.4235 94.3187 87.4235 107.066ZM99.9276 115.908C100.769 112.511 103.611 109.782 107.111 109.782C110.611 109.782 113.453 112.511 114.294 115.908C118.25 131.883 132.682 143.726 149.88 143.726C158.629 143.726 166.663 140.66 172.965 135.545V143.727C172.965 147.476 176.005 150.515 179.754 150.515C183.504 150.515 186.543 147.476 186.543 143.727V109.783C186.543 109.499 186.526 109.22 186.492 108.945C186.523 108.323 186.539 107.696 186.539 107.066C186.539 86.8201 170.126 70.4072 149.88 70.4072C137.535 70.4072 126.616 76.5089 119.973 85.8608C116.928 90.147 112.368 93.4889 107.111 93.4889C101.853 93.4889 97.2935 90.147 94.2489 85.8608C87.6059 76.5089 76.6864 70.4072 64.3418 70.4072C44.0955 70.4072 27.6826 86.8201 27.6826 107.066C27.6826 127.313 44.0955 143.726 64.3418 143.726C81.5396 143.726 95.9714 131.883 99.9276 115.908ZM172.962 107.066C172.962 119.814 162.628 130.148 149.88 130.148C137.132 130.148 126.798 119.814 126.798 107.066C126.798 94.3187 137.132 83.9847 149.88 83.9847C162.628 83.9847 172.962 94.3187 172.962 107.066Z" fill="white"/>
<mask id="path-3-inside-1_1_1406" fill="white">
<path d="M28.816 98.0201C30.9325 89.7084 35.8964 82.4018 42.8438 77.3721L51.0725 88.7382C46.7844 91.8427 43.7205 96.3525 42.4141 101.483L28.816 98.0201Z"/>
</mask>
<path d="M28.816 98.0201C30.9325 89.7084 35.8964 82.4018 42.8438 77.3721L51.0725 88.7382C46.7844 91.8427 43.7205 96.3525 42.4141 101.483L28.816 98.0201Z" stroke="#EE5A8F" stroke-width="20" mask="url(#path-3-inside-1_1_1406)"/>
<defs>
<linearGradient id="paint0_linear_1_1406" x1="109.132" y1="-0.000251822" x2="110.893" y2="267.548" gradientUnits="userSpaceOnUse">
<stop stop-color="#EE5A8F"/>
<stop offset="1" stop-color="#FFB629"/>
</linearGradient>
</defs>
</svg>
