<svg width="351" height="70" viewBox="0 0 351 70" fill="none" xmlns="http://www.w3.org/2000/svg">
<path d="M97.9719 18.5106H94.0107C91.9278 18.5106 90.3284 19.0314 89.2126 20.0728C88.134 21.1142 87.5947 22.8252 87.5947 25.2056H85.9209V20.4633C85.9209 17.4878 87.5017 16 90.6632 16H116.885V18.5106H105.225V52.8225H97.9719V18.5106Z" fill="#303030"/>
<path d="M127.984 53.3805C125.418 53.3805 123.167 52.7854 121.233 51.5951C119.299 50.4049 117.793 48.7869 116.714 46.7413C115.673 44.6584 115.152 42.3151 115.152 39.7115C115.152 36.8103 115.673 34.3369 116.714 32.2912C117.793 30.2455 119.262 28.7019 121.122 27.6605C122.981 26.5818 125.083 26.0425 127.426 26.0425C129.732 26.0425 131.815 26.5074 133.675 27.4373C135.534 28.3672 137.004 29.6876 138.082 31.3985C139.161 33.0723 139.7 35.0064 139.7 37.2009C139.7 37.9076 139.663 38.7072 139.589 39.5999L139.477 40.7157H122.684C122.684 44.2492 123.223 46.8342 124.302 48.4708C125.38 50.0702 126.887 50.8698 128.821 50.8698C130.606 50.8698 132.094 50.4793 133.284 49.6982C134.512 48.8799 135.683 47.7269 136.799 46.2391L138.529 47.5223C137.45 49.1961 136.092 50.5909 134.456 51.7067C132.856 52.8225 130.699 53.3805 127.984 53.3805ZM132.168 38.2051C132.168 34.7088 131.759 32.2354 130.941 30.7848C130.123 29.297 128.951 28.5531 127.426 28.5531C126.013 28.5531 124.86 29.3156 123.967 30.8406C123.111 32.3284 122.684 34.7832 122.684 38.2051H132.168Z" fill="#303030"/>
<path d="M152.576 53.3805C149.564 53.3805 147.22 52.711 145.547 51.372C143.91 49.9958 143.092 48.1546 143.092 45.8486C143.092 43.9889 143.519 42.4453 144.375 41.2179C145.268 39.9904 146.811 39.0606 149.006 38.4283C151.2 37.796 154.25 37.4798 158.156 37.4798H158.992C158.992 34.2439 158.546 31.9564 157.653 30.6174C156.761 29.2412 155.44 28.5531 153.692 28.5531C152.242 28.5531 151.051 28.9065 150.122 29.6132C149.192 30.3199 148.522 31.6403 148.113 33.5744H145.044C145.044 32.3098 145.119 31.2311 145.268 30.3385C145.454 29.4458 145.844 28.6647 146.439 27.9952C147.592 26.6934 150.382 26.0425 154.808 26.0425C158.527 26.0425 161.354 27.0282 163.288 28.9995C165.26 30.9336 166.245 33.8534 166.245 37.7588V52.8225H161.503L159.55 50.3119H159.271C158.937 50.8326 158.416 51.3534 157.709 51.8741C156.445 52.8783 154.734 53.3805 152.576 53.3805ZM154.25 50.5909C155.031 50.5909 155.701 50.4421 156.259 50.1445C156.817 49.8098 157.356 49.3635 157.877 48.8055C158.36 48.2848 158.732 47.6711 158.992 46.9644V39.9905H158.156C155.515 39.9905 153.599 40.474 152.409 41.441C151.219 42.3709 150.624 43.8401 150.624 45.8486C150.624 47.3736 150.94 48.5452 151.572 49.3635C152.204 50.1817 153.097 50.5909 154.25 50.5909Z" fill="#303030"/>
<path d="M184.55 53.3805C181.686 53.3805 179.25 52.7668 177.242 51.5393C175.233 50.3119 173.708 48.6754 172.667 46.6297C171.662 44.5468 171.16 42.2407 171.16 39.7115C171.16 37.1823 171.662 34.8948 172.667 32.8491C173.708 30.7662 175.233 29.1111 177.242 27.8836C179.25 26.6562 181.686 26.0425 184.55 26.0425C189.014 26.0425 191.896 26.6934 193.198 27.9952C193.83 28.6275 194.221 29.4644 194.37 30.5059C194.518 31.5473 194.593 33.314 194.593 35.8061H192.919C192.77 33.4628 192.045 31.6775 190.743 30.4501C189.441 29.1854 187.656 28.5531 185.387 28.5531C183.341 28.5531 181.705 29.5016 180.477 31.3985C179.287 33.2582 178.692 36.0292 178.692 39.7115C178.692 47.1504 181.017 50.8698 185.666 50.8698C187.451 50.8698 188.939 50.4793 190.129 49.6982C191.357 48.8799 192.528 47.7269 193.644 46.2391L195.374 47.5223C194.295 49.1961 192.938 50.5909 191.301 51.7067C189.664 52.8225 187.414 53.3805 184.55 53.3805Z" fill="#303030"/>
<path d="M200.177 23.2529C200.177 21.356 199.917 19.9612 199.396 19.0685C198.875 18.1387 197.834 17.6738 196.272 17.6738H195.714V16H202.409C203.748 16 204.771 16.2232 205.477 16.6695C206.184 17.1158 206.686 17.8597 206.984 18.9012C207.281 19.9054 207.43 21.356 207.43 23.2529V28.1626C207.765 27.9022 208.341 27.5489 209.16 27.1026C210.647 26.3959 212.117 26.0425 213.567 26.0425C216.58 26.0425 219.091 26.8236 221.099 28.3858C223.145 29.9107 224.168 32.533 224.168 36.2524V52.8225H216.915V36.5314C216.915 33.8534 216.431 31.9006 215.464 30.6732C214.534 29.4458 213.344 28.8321 211.893 28.8321C210.889 28.8321 209.829 29.1669 208.713 29.8364C208.267 30.0967 207.839 30.4129 207.43 30.7848V52.8225H200.177V23.2529Z" fill="#303030"/>
<path d="M241.627 63.9809C237.387 63.9809 234.04 63.2928 231.585 61.9166C229.167 60.5776 227.958 58.3831 227.958 55.3332C227.958 53.4735 228.702 51.9299 230.19 50.7025C231.678 49.475 233.445 48.601 235.49 48.0803C233.817 47.5595 232.98 46.5367 232.98 45.0117C232.98 43.7471 233.724 42.8172 235.211 42.2221C233.612 41.6642 232.273 40.6971 231.194 39.3209C230.153 37.9448 229.632 36.4198 229.632 34.746C229.632 31.6961 230.711 29.483 232.868 28.1068C235.063 26.7306 237.982 26.0425 241.627 26.0425H253.344V27.5489L248.322 28.2184C249.885 28.8135 251.149 29.7248 252.116 30.9522C253.12 32.1796 253.623 33.4442 253.623 34.746C253.623 37.796 252.581 39.9905 250.498 41.3295C248.453 42.6685 245.496 43.338 241.627 43.338C239.693 43.338 238.28 43.4495 237.387 43.6727C236.495 43.8587 236.048 44.305 236.048 45.0117C236.048 45.6068 236.495 45.9974 237.387 46.1833C238.28 46.3693 239.693 46.4809 241.627 46.5181C245.644 46.5925 248.917 47.3922 251.447 48.9171C254.013 50.4049 255.296 52.5436 255.296 55.3332C255.296 58.3831 254.069 60.5776 251.614 61.9166C249.196 63.2928 245.868 63.9809 241.627 63.9809ZM241.627 41.1063C244.603 41.1063 246.091 38.9862 246.091 34.746C246.091 32.6631 245.682 31.0638 244.863 29.9479C244.045 28.8321 242.966 28.2742 241.627 28.2742C240.251 28.2742 239.154 28.8135 238.336 29.8921C237.555 30.9708 237.164 32.5887 237.164 34.746C237.164 38.9862 238.652 41.1063 241.627 41.1063ZM241.627 61.4703C243.561 61.4703 245.068 60.9495 246.146 59.9081C247.225 58.9038 247.764 57.3789 247.764 55.3332C247.764 53.6966 247.244 52.339 246.202 51.2604C245.198 50.1445 243.822 49.4193 242.074 49.0845L239.451 48.8055C238.15 49.3635 237.164 50.1631 236.495 51.2046C235.825 52.246 235.49 53.6222 235.49 55.3332C235.49 57.3789 236.03 58.9038 237.108 59.9081C238.187 60.9495 239.693 61.4703 241.627 61.4703Z" fill="#303030"/>
<path d="M277.637 27.1583C278.307 27.6419 278.79 28.1812 279.088 28.7763C279.386 29.3342 279.534 29.6318 279.534 29.669L276.689 31.8449C276.429 31.5101 276.094 31.1568 275.685 30.7848C274.866 30.0409 273.918 29.669 272.839 29.669C270.682 29.669 269.027 30.2455 267.874 31.3985L267.985 32.2354C268.06 32.9049 268.097 33.5186 268.097 34.0765V52.8225H260.844V33.8534C260.844 31.9564 260.584 30.5616 260.063 29.669C259.58 28.7391 258.557 28.2742 256.995 28.2742H256.437V26.6004H261.96C263.225 26.6004 264.21 26.7678 264.917 27.1026C265.661 27.4001 266.237 27.9208 266.646 28.6647C268.655 26.9166 270.998 26.0425 273.676 26.0425C275.276 26.0425 276.596 26.4145 277.637 27.1583Z" fill="#303030"/>
<path d="M290.803 53.3805C287.79 53.3805 285.447 52.711 283.773 51.372C282.136 49.9958 281.318 48.1546 281.318 45.8486C281.318 43.9889 281.746 42.4453 282.601 41.2179C283.494 39.9904 285.037 39.0606 287.232 38.4283C289.426 37.796 292.476 37.4798 296.382 37.4798H297.219C297.219 34.2439 296.772 31.9564 295.88 30.6174C294.987 29.2412 293.667 28.5531 291.918 28.5531C290.468 28.5531 289.278 28.9065 288.348 29.6132C287.418 30.3199 286.748 31.6403 286.339 33.5744H283.271C283.271 32.3098 283.345 31.2311 283.494 30.3385C283.68 29.4458 284.07 28.6647 284.665 27.9952C285.818 26.6934 288.608 26.0425 293.034 26.0425C296.754 26.0425 299.58 27.0282 301.515 28.9995C303.486 30.9336 304.472 33.8534 304.472 37.7588V52.8225H299.729L297.777 50.3119H297.498C297.163 50.8326 296.642 51.3534 295.935 51.8741C294.671 52.8783 292.96 53.3805 290.803 53.3805ZM292.476 50.5909C293.257 50.5909 293.927 50.4421 294.485 50.1445C295.043 49.8098 295.582 49.3635 296.103 48.8055C296.586 48.2848 296.958 47.6711 297.219 46.9644V39.9905H296.382C293.741 39.9905 291.825 40.474 290.635 41.441C289.445 42.3709 288.85 43.8401 288.85 45.8486C288.85 47.3736 289.166 48.5452 289.798 49.3635C290.431 50.1817 291.323 50.5909 292.476 50.5909Z" fill="#303030"/>
<path d="M311.841 33.8534C311.841 31.9564 311.581 30.5616 311.06 29.669C310.577 28.7391 309.554 28.2742 307.992 28.2742H307.434V26.6004H312.957C315.375 26.6004 316.956 27.3071 317.699 28.7205H317.923C319.968 26.9352 322.312 26.0425 324.952 26.0425C326.775 26.0425 328.356 26.3959 329.695 27.1026C331.071 27.7721 332.056 28.4788 332.652 29.2226C333.544 28.2556 334.604 27.4931 335.832 26.9352C337.059 26.3401 338.64 26.0425 340.574 26.0425C347.083 26.0425 350.338 29.4644 350.338 36.3082V52.8225H343.085V36.2524C343.085 33.686 342.676 31.8077 341.857 30.6174C341.039 29.4272 339.96 28.8321 338.621 28.8321C337.617 28.8321 336.687 29.0367 335.832 29.4458C334.976 29.8178 334.307 30.3199 333.823 30.9522C333.898 31.101 334.046 31.5101 334.27 32.1796C334.567 33.2954 334.716 34.6716 334.716 36.3082V52.8225H327.463V36.2524C327.463 33.686 327.054 31.8077 326.236 30.6174C325.417 29.4272 324.339 28.8321 323 28.8321C322.219 28.8321 321.4 29.0739 320.545 29.5574C319.727 30.0037 319.113 30.5059 318.704 31.0638L318.871 31.8449C319.02 32.2912 319.094 33.0165 319.094 34.0207V52.8225H311.841V33.8534Z" fill="#303030"/>
<circle cx="34.5908" cy="34.5909" r="34.5909" transform="rotate(90 34.5908 34.5909)" fill="url(#paint0_linear_1_512)"/>
<path fill-rule="evenodd" clip-rule="evenodd" d="M27.7109 33.9361C27.7109 37.9766 24.4354 41.2522 20.3948 41.2522C16.3543 41.2522 13.0787 37.9766 13.0787 33.9361C13.0787 29.8955 16.3543 26.62 20.3948 26.62C24.4354 26.62 27.7109 29.8955 27.7109 33.9361ZM31.6743 36.7387C31.941 35.6618 32.8417 34.7968 33.9511 34.7968C35.0605 34.7968 35.9613 35.6618 36.228 36.7387C37.4819 41.8022 42.0563 45.5558 47.5074 45.5558C50.2809 45.5558 52.8274 44.5841 54.8251 42.9626V45.556C54.8251 46.7444 55.7885 47.7077 56.9769 47.7077C58.1653 47.7077 59.1287 46.7444 59.1287 45.556V34.797C59.1287 34.7064 59.1231 34.6171 59.1122 34.5294C59.1221 34.3329 59.1271 34.1351 59.1271 33.9361C59.1271 27.5187 53.9248 22.3164 47.5074 22.3164C43.5946 22.3164 40.1335 24.2504 38.0279 27.2147C37.0629 28.5732 35.6175 29.6325 33.9511 29.6325C32.2847 29.6325 30.8394 28.5732 29.8743 27.2147C27.7687 24.2504 24.3076 22.3164 20.3948 22.3164C13.9775 22.3164 8.77515 27.5187 8.77515 33.9361C8.77515 40.3535 13.9775 45.5558 20.3948 45.5558C25.8459 45.5558 30.4203 41.8022 31.6743 36.7387ZM54.8235 33.9361C54.8235 37.9766 51.548 41.2522 47.5074 41.2522C43.4668 41.2522 40.1913 37.9766 40.1913 33.9361C40.1913 29.8955 43.4668 26.62 47.5074 26.62C51.548 26.62 54.8235 29.8955 54.8235 33.9361Z" fill="white"/>
<mask id="path-4-inside-1_1_512" fill="white">
<path d="M9.13399 31.069C9.80484 28.4345 11.3782 26.1186 13.5803 24.5243L16.1885 28.127C14.8293 29.111 13.8582 30.5404 13.4441 32.1665L9.13399 31.069Z"/>
</mask>
<path d="M9.13399 31.069C9.80484 28.4345 11.3782 26.1186 13.5803 24.5243L16.1885 28.127C14.8293 29.111 13.8582 30.5404 13.4441 32.1665L9.13399 31.069Z" stroke="#EE5A8F" stroke-width="20" mask="url(#path-4-inside-1_1_512)"/>
<defs>
<linearGradient id="paint0_linear_1_512" x1="34.5908" y1="-1.66273e-08" x2="35.1487" y2="84.8035" gradientUnits="userSpaceOnUse">
<stop stop-color="#EE5A8F"/>
<stop offset="1" stop-color="#FFB629"/>
</linearGradient>
</defs>
</svg>
