<svg width="12" height="12" viewBox="0 0 12 12" fill="none" xmlns="http://www.w3.org/2000/svg">
<path fill-rule="evenodd" clip-rule="evenodd" d="M6.3027 0.306027C6.56588 0.569207 6.56588 0.995905 6.3027 1.25908L1.93011 5.63168C1.65445 5.90733 1.66948 6.35867 1.96286 6.61538L6.26995 10.3841C6.55005 10.6292 6.57843 11.0549 6.33335 11.335C6.08826 11.6151 5.6625 11.6435 5.3824 11.3984L1.07531 7.62972C0.195171 6.8596 0.150085 5.50559 0.977049 4.67862L5.34965 0.306027C5.61282 0.0428477 6.03952 0.0428477 6.3027 0.306027Z" fill="#C4C4C4"/>
<path fill-rule="evenodd" clip-rule="evenodd" d="M0.435059 6.17391C0.435059 5.80172 0.73678 5.5 1.10897 5.5H11.2177C11.5899 5.5 11.8916 5.80172 11.8916 6.17391C11.8916 6.54611 11.5899 6.84783 11.2177 6.84783H1.10897C0.73678 6.84783 0.435059 6.54611 0.435059 6.17391Z" fill="#C4C4C4"/>
</svg>
